PathFileType	4	(X/Y/Z)	3_coords_data.trc
DataRate	CameraRate	NumFrames	NumMarkers	Units	OrigDataRate	OrigDataStartFrame	OrigNumFrames
30.0	30.0	5	21	m	30.0	1	63
Frame#	Time	THUMB_TIP	THUMB_IP	THUMB_MCP	THUMB_CMC	INDEX_TIP	INDEX_DIP	INDEX_PIP	INDEX_MCP	MIDDLE_TIP	MIDDLE_DIP	MIDDLE_PIP	MIDDLE_MCP	RING_TIP	RING_DIP	RING_PIP	RING_MCP	PINKY_TIP	PINKY_DIP	PINKY_PIP	PINKY_MCP	WRIST
X1	Y1	Z1	X2	Y2	Z2	X3	Y3	Z3	X4	Y4	Z4	X5	Y5	Z5	X6	Y6	Z6	X7	Y7	Z7	X8	Y8	Z8	X9	Y9	Z9	X10	Y10	Z10	X11	Y11	Z11	X12	Y12	Z12	X13	Y13	Z13	X14	Y14	Z14	X15	Y15	Z15	X16	Y16	Z16	X17	Y17	Z17	X18	Y18	Z18	X19	Y19	Z19	X20	Y20	Z20	X21	Y21	Z21
0	-2.749317978547796e-18	0.543641172797461	-0.01828757404280401	-0.11558307444067961	0.5231975378078954	-0.014456118469079238	-0.1253492270403463	0.49513237212554595	-0.008699867430253971	-0.11318238483703397	0.4724750074180257	-0.02553970066924116	-0.07864322096479293	0.5640904356418961	0.05223056778085777	-0.1642468389126644	0.5512983355219641	0.04610565142447076	-0.15298417607704268	0.534127082779916	0.03923127366411494	-0.1359577013192827	0.5069907508599778	0.021768994775709705	-0.10816697624859589	0.5241263051851538	-0.00949729427927426	-0.11901494012221153	0.5387164990164158	-0.0040032532168107204	-0.12823132535559717	0.548237192849781	0.022397131670547354	-0.12037094262123343	0.518472808124894	0.024490373075062744	-0.08711665472671759	0.54113839238695	-0.01408383616030029	-0.10982255022243831	0.5560738233499735	-0.004437454589285572	-0.11280252078188124	0.5624270914037083	0.01618733053636945	-0.10037536493036159	0.5303010754983831	0.011580932548046707	-0.07626269121664875	0.6020621202158024	0.013185292783263747	-0.07979936911537266	0.5861186900352727	0.00856719770556491	-0.07561843238637167	0.5664150008010749	0.003769457409665722	-0.07018167438042178	0.5334662852215416	-0.010628676444551233	-0.06736044518464879	0.4622830810018609	-0.023011742144276925	-0.051989820119430985
1	0.03333333333333339	0.5433286588866449	-0.01836070585017069	-0.11653093921140656	0.5227634419571924	-0.01461611371355076	-0.1260729454142404	0.4947170359347832	-0.009265407328025499	-0.11367984046019142	0.47238746720208347	-0.025570172106277878	-0.07867362664410604	0.5635928938923935	0.0517554442185979	-0.1646976631126037	0.5507315331846113	0.04597629727174779	-0.15333162328727168	0.5335692285746475	0.03928545372887082	-0.13622321172571655	0.5063440682894786	0.022434478814534864	-0.10814347907237226	0.5234060151524899	-0.009377415258766675	-0.11917505937047801	0.537997067093969	-0.004086049682988313	-0.12850793961103207	0.5476650744158021	0.022269971521669985	-0.12067855070227385	0.5181357853140557	0.024791873571142764	-0.087244899747011	0.5408598716015496	-0.01466832481184166	-0.1107567876485247	0.5556984911220814	-0.004765896885330689	-0.11335626680503946	0.5622014652251122	0.015911356240303043	-0.10109484315222561	0.5302508463796759	0.011337684944493609	-0.07674406656765753	0.6018998085730333	0.013491216413248575	-0.08014300693616994	0.5859845930853398	0.008902976518045724	-0.07582398266622814	0.5662153074958953	0.004083761955528953	-0.0706507305668802	0.5332764961300077	-0.010372151866025803	-0.06801544834551154	0.4622830810018609	-0.023011742144276925	-0.051989820119430985
2	0.06666666666666676	0.543055195403488	-0.01847292476461404	-0.11727150807159809	0.5223996230225385	-0.014786221174297287	-0.12663930110157595	0.49438280068588647	-0.009721852468309922	-0.1140603569580364	0.47231467538814975	-0.02560751765432523	-0.0786974740517854	0.563206101690528	0.0513607142010154	-0.16505395005103563	0.5502981629800667	0.04584227296848831	-0.15361140118244365	0.5331466895042152	0.039282847404666255	-0.13644134798276358	0.5058661625337784	0.02289389578512402	-0.10814274011899089	0.5228466343049676	-0.009347506527342286	-0.1193176315793632	0.5374415860388206	-0.004216943064885514	-0.12873382520758714	0.5472273771747836	0.02210632082405528	-0.12094064741694915	0.5178980278577004	0.024983644929023163	-0.08736002509347984	0.540639019490432	-0.01516419347453879	-0.1114755374775725	0.5554015606354159	-0.005078629524535416	-0.1137882801681998	0.5620334876400933	0.015637462950368053	-0.10166223234642868	0.5302192257427861	0.011124958696315024	-0.07712224703089277	0.6017783803379455	0.013677282771373478	-0.08042809812326734	0.5858838797339609	0.00911257753709549	-0.07600901262125559	0.5660664105710489	0.0042777697225838685	-0.07103864358326994	0.5331355368397519	-0.010214661370894773	-0.06850675746929213	0.4622830810018609	-0.023011742144276925	-0.051989820119430985
3	0.10000000000000014	0.5428269337994498	-0.018621114406928152	-0.11783191244653596	0.5221059562644228	-0.014967585459928268	-0.12706732344044075	0.4941250906270591	-0.010078205872978807	-0.11433998572045673	0.4722553916999789	-0.025650576238710254	-0.07871544993356738	0.5629271141065191	0.05103469607347155	-0.16533838173711768	0.5499904478028054	0.04570031861945123	-0.1538411176223643	0.5328508086296492	0.039228188085870475	-0.13662617851790315	0.5055399968232731	0.023173627156220844	-0.10816556141579386	0.5224310277270702	-0.009398301985752755	-0.11944614559604533	0.537033062607249	-0.004390399329443739	-0.1289172325633881	0.5469110873062367	0.021910333349362987	-0.12116444992718933	0.5177487370040017	0.02507896624619621	-0.08746482067975025	0.5404714883950583	-0.015585014236966566	-0.11200794648845991	0.5551805344687862	-0.005377205069716617	-0.1141161674460362	0.5619200223717831	0.015365149844156822	-0.10209477008831319	0.5302051781415593	0.010938709374389566	-0.07741084588205593	0.6016996580494857	0.013757069204452743	-0.08066035934342763	0.585818201933617	0.009210393740439637	-0.07617626591613591	0.5659664497103504	0.004365220233661149	-0.07135503719772407	0.5330405453706002	-0.010144101797426197	-0.06885546751319194	0.4622830810018608	-0.023011742144276925	-0.051989820119430985
4	0.13333333333333353	0.5426450831757902	-0.018801039994341018	-0.11823803638665048	0.5218787578822384	-0.015159637498934786	-0.12737586554180758	0.4939372205634899	-0.01034567415380927	-0.11453389337329789	0.4722083071184565	-0.025698166173583004	-0.07872823307662091	0.5627479158299812	0.05076465955526788	-0.16556798527591898	0.5497965573163356	0.04554747886115473	-0.1540335438825965	0.5326691734429361	0.039126112467673724	-0.13678742523827875	0.5053466994904311	0.023298982377245037	-0.10821085329174646	0.5221414816409912	-0.009520298059212395	-0.11956325276424912	0.5367534606754544	-0.004600874147457912	-0.12906532291095207	0.5467023538917628	0.021685950244365926	-0.12135611172147798	0.5176766043082093	0.025090545670714892	-0.08756169632343125	0.5403526075627025	-0.0159428291754955	-0.1123822677377524	0.5550303104983344	-0.0056633447689807825	-0.11435640979686645	0.5618563044738705	0.015094103114269397	-0.1024101073304085	0.5302071940935255	0.01077471478548131	-0.07762306372698802	0.6016619161670181	0.013743267752988952	-0.08084627690691326	0.5857861977315351	0.009210241261522145	-0.0763281760907607	0.5659112670743557	0.004359455725391981	-0.07160916877409085	0.5329868662758341	-0.010148579751544484	-0.06908247337134232	0.4622830810018608	-0.023011742144276925	-0.051989820119430985
